<svg xmlns="http://www.w3.org/2000/svg" viewBox="0 0 512 512" style="height: 512px; width: 512px;"><defs><filter id="shadow-1" height="300%" width="300%" x="-100%" y="-100%"><feFlood flood-color="rgba(0, 0, 0, 1)" result="flood"></feFlood><feComposite in="flood" in2="SourceGraphic" operator="atop" result="composite"></feComposite><feGaussianBlur in="composite" stdDeviation="20" result="blur"></feGaussianBlur><feOffset dx="0" dy="0" result="offset"></feOffset><feComposite in="SourceGraphic" in2="offset" operator="over"></feComposite></filter><filter id="shadow-2" height="300%" width="300%" x="-100%" y="-100%"><feFlood flood-color="rgba(0, 0, 0, 1)" result="flood"></feFlood><feComposite in="flood" in2="SourceGraphic" operator="atop" result="composite"></feComposite><feGaussianBlur in="composite" stdDeviation="20" result="blur"></feGaussianBlur><feOffset dx="0" dy="0" result="offset"></feOffset><feComposite in="SourceGraphic" in2="offset" operator="over"></feComposite></filter><filter id="shadow-3" height="300%" width="300%" x="-100%" y="-100%"><feFlood flood-color="rgba(0, 0, 0, 1)" result="flood"></feFlood><feComposite in="flood" in2="SourceGraphic" operator="atop" result="composite"></feComposite><feGaussianBlur in="composite" stdDeviation="20" result="blur"></feGaussianBlur><feOffset dx="0" dy="0" result="offset"></feOffset><feComposite in="SourceGraphic" in2="offset" operator="over"></feComposite></filter><filter id="shadow-4" height="300%" width="300%" x="-100%" y="-100%"><feFlood flood-color="rgba(0, 0, 0, 1)" result="flood"></feFlood><feComposite in="flood" in2="SourceGraphic" operator="out" result="composite"></feComposite><feGaussianBlur in="composite" stdDeviation="5" result="blur"></feGaussianBlur><feOffset dx="0" dy="0" result="offset"></feOffset><feComposite in="offset" in2="SourceGraphic" operator="atop"></feComposite></filter><filter id="shadow-5" height="300%" width="300%" x="-100%" y="-100%"><feFlood flood-color="rgba(0, 0, 0, 1)" result="flood"></feFlood><feComposite in="flood" in2="SourceGraphic" operator="out" result="composite"></feComposite><feGaussianBlur in="composite" stdDeviation="5" result="blur"></feGaussianBlur><feOffset dx="0" dy="0" result="offset"></feOffset><feComposite in="offset" in2="SourceGraphic" operator="atop"></feComposite></filter><filter id="shadow-6" height="300%" width="300%" x="-100%" y="-100%"><feFlood flood-color="rgba(0, 0, 0, 1)" result="flood"></feFlood><feComposite in="flood" in2="SourceGraphic" operator="out" result="composite"></feComposite><feGaussianBlur in="composite" stdDeviation="5" result="blur"></feGaussianBlur><feOffset dx="0" dy="0" result="offset"></feOffset><feComposite in="offset" in2="SourceGraphic" operator="atop"></feComposite></filter><filter id="shadow-7" height="300%" width="300%" x="-100%" y="-100%"><feFlood flood-color="rgba(0, 0, 0, 1)" result="flood"></feFlood><feComposite in="flood" in2="SourceGraphic" operator="atop" result="composite"></feComposite><feGaussianBlur in="composite" stdDeviation="20" result="blur"></feGaussianBlur><feOffset dx="0" dy="0" result="offset"></feOffset><feComposite in="SourceGraphic" in2="offset" operator="over"></feComposite></filter><filter id="shadow-8" height="300%" width="300%" x="-100%" y="-100%"><feFlood flood-color="rgba(0, 0, 0, 1)" result="flood"></feFlood><feComposite in="flood" in2="SourceGraphic" operator="atop" result="composite"></feComposite><feGaussianBlur in="composite" stdDeviation="20" result="blur"></feGaussianBlur><feOffset dx="0" dy="0" result="offset"></feOffset><feComposite in="SourceGraphic" in2="offset" operator="over"></feComposite></filter><filter id="shadow-9" height="300%" width="300%" x="-100%" y="-100%"><feFlood flood-color="rgba(0, 0, 0, 1)" result="flood"></feFlood><feComposite in="flood" in2="SourceGraphic" operator="out" result="composite"></feComposite><feGaussianBlur in="composite" stdDeviation="5" result="blur"></feGaussianBlur><feOffset dx="0" dy="0" result="offset"></feOffset><feComposite in="offset" in2="SourceGraphic" operator="atop"></feComposite></filter><filter id="shadow-10" height="300%" width="300%" x="-100%" y="-100%"><feFlood flood-color="rgba(0, 0, 0, 1)" result="flood"></feFlood><feComposite in="flood" in2="SourceGraphic" operator="out" result="composite"></feComposite><feGaussianBlur in="composite" stdDeviation="5" result="blur"></feGaussianBlur><feOffset dx="0" dy="0" result="offset"></feOffset><feComposite in="offset" in2="SourceGraphic" operator="atop"></feComposite></filter><filter id="shadow-11" height="300%" width="300%" x="-100%" y="-100%"><feFlood flood-color="rgba(0, 0, 0, 1)" result="flood"></feFlood><feComposite in="flood" in2="SourceGraphic" operator="out" result="composite"></feComposite><feGaussianBlur in="composite" stdDeviation="5" result="blur"></feGaussianBlur><feOffset dx="0" dy="0" result="offset"></feOffset><feComposite in="offset" in2="SourceGraphic" operator="atop"></feComposite></filter><filter id="shadow-12" height="300%" width="300%" x="-100%" y="-100%"><feFlood flood-color="rgba(0, 0, 0, 1)" result="flood"></feFlood><feComposite in="flood" in2="SourceGraphic" operator="atop" result="composite"></feComposite><feGaussianBlur in="composite" stdDeviation="20" result="blur"></feGaussianBlur><feOffset dx="0" dy="0" result="offset"></feOffset><feComposite in="SourceGraphic" in2="offset" operator="over"></feComposite></filter></defs><g class="" transform="translate(0,0)" style=""><g transform="translate(25.6, 25.6) scale(0.9, 0.9) rotate(0, 256, 256) skewX(0) skewY(0)"><path d="M149.7 17.6C148.5 17.6 147.2 17.6 146 17.7C112.1 18.5 70.48 28.4 18.78 51.4L18.78 422.8C79.48 394 125.4 385.7 162.9 389.7C196.4 393.2 222.6 406.3 246.5 420.9L264.8 420.9C288.7 406.3 314.9 393.2 348.4 389.7C385.9 385.7 431.9 394 492.6 422.8L492.6 51.4C440.9 28.4 399.3 18.5 365.4 17.7C364.1 17.7 362.9 17.6 361.7 17.6C358 17.6 354.3 17.7 350.8 17.9C315 19.9 288.1 32.2 264.8 49.9L246.5 49.9C223.3 32.2 196.3 19.9 160.5 17.9C157 17.7 153.4 17.6 149.7 17.6Z" class="selected" fill="#fff" fill-opacity="1" filter="url(#shadow-2)"></path><path d="M255.9 68.8C260.4 68.8 265.3 69.9 268.7 71.7L384.6 138.8C392 142.9 392 149.7 384.6 154L268.7 220.9C261.5 225.2 250.2 225.2 243 220.9L126.8 154C119.5 149.7 119.5 142.9 126.8 138.8L243 71.7C246.4 69.9 250.9 68.8 255.9 68.8Z" class="" fill="#f5a623" fill-opacity="1" filter="url(#shadow-3)" stroke="#f5a623" stroke-opacity="1" stroke-width="10"></path><path d="M166.9 131.4C145.3 131 133.8 146.4 148.7 155.7C158.3 160.5 172.4 160.1 181.4 154.9C190.2 149.6 190.9 141.2 182.9 135.5C178.6 133 172.9 131.5 166.9 131.4Z" class="" fill="#fff" fill-opacity="1" filter="url(#shadow-4)"></path><path d="M345.5 131.5C324.7 131.9 314.2 147 329.2 156C338.8 160.9 353.1 160.6 362.2 155.3C371.1 150 371.7 141.4 363.4 135.7C359.2 133.3 353.5 131.7 347.5 131.5L345.5 131.5Z" class="" fill="#fff" fill-opacity="1" filter="url(#shadow-5)"></path><path d="M256.5 131.5C249.9 131.4 243.5 133 238.8 135.7C228.6 141.3 228.4 150.8 238.2 156.6C248.1 162.4 264 162.2 273.3 156C288.3 147 277.9 131.7 256.5 131.5Z" class="" fill="#fff" fill-opacity="1" filter="url(#shadow-6)"></path><path d="M115.5 172.5C117 172.6 118.9 173 121.1 174.1L232.6 238.6C239.8 242.7 245.5 252.8 245.5 261.1L245.5 380.8C245.5 389.1 239.8 392.5 232.6 388.4L121.2 324C113.8 319.7 108 309.8 108 301.4L108 181.7C108 175.5 111 172.5 115.5 172.5Z" class="" fill="#f5a623" fill-opacity="1" filter="url(#shadow-7)" stroke="#f5a623" stroke-opacity="1" stroke-width="10"></path><path d="M396.8 172.5C401 172.5 404 175.5 404 181.7L404 301.4C404 309.8 398 319.7 391 324L279.5 388.4C272.3 392.5 266.6 389.1 266.6 380.8L266.6 261.1C266.6 252.8 272.3 242.7 279.5 238.6L391 174.1C393.1 173 395.2 172.6 396.8 172.5Z" class="" fill="#f5a623" fill-opacity="1" filter="url(#shadow-8)" stroke="#f5a623" stroke-opacity="1" stroke-width="10"></path><path d="M211.8 238L210.7 238C205.4 238.4 202.2 242.8 202.2 249.6C201.6 260 209.4 273.7 219.1 279.4C228.9 285 236.7 280.5 236.3 269.5C236.5 255.3 223 238.4 211.8 238Z" class="" fill="#fff" fill-opacity="1" filter="url(#shadow-9)"></path><path d="M342.7 259.8C331.5 259.9 317.9 277 318 291.2C318.1 301.6 325.7 305.6 335.2 300.1C344.6 294.6 352.2 281.8 352.3 271.3C352.3 264.6 349 260.2 343.8 259.8L342.7 259.8Z" class="" fill="#fff" fill-opacity="1" filter="url(#shadow-10)"></path><path d="M125.8 282.3C120.4 282.6 117.1 287 117.1 293.9C116.6 304.4 124.4 318 134.1 323.7C143.9 329.2 151.7 324.7 151.3 313.6C151.3 299.1 137.2 281.8 125.8 282.3Z" class="" fill="#fff" fill-opacity="1" filter="url(#shadow-11)"></path><path d="M143.4 407.4C111.4 407.7 71.57 417.2 18.77 443.4L18.77 485.9C79.47 457.1 125.4 448.8 162.9 452.8C181.5 454.8 197.8 459.7 212.7 466.1C208 472.2 203.4 479.4 198.8 487.8L316 487.8C310 479.6 304.2 472.4 298.3 466.2C313.3 459.7 329.7 454.8 348.4 452.8C385.9 448.8 431.9 457.1 492.6 485.9L492.6 443.4C439.5 417.1 399.5 407.5 367.4 407.4L364.3 407.4C359.5 407.5 354.9 407.8 350.4 408.3C316.4 411.9 290.8 426.3 264.8 442.7L264.8 443C258.3 441 251.8 440.6 245.4 442C219.9 425.9 194.4 411.8 161 408.3C155.4 407.7 149.5 407.4 143.4 407.4Z" class="" fill="#9013fe" fill-opacity="1" filter="url(#shadow-12)"></path></g></g></svg>